<?xml version="1.0" encoding="UTF-8"?>
<svg version="1.1" viewBox="0 0 1536 1024" width="1536" height="1024" xmlns="http://www.w3.org/2000/svg">
<path transform="translate(472,267)" d="m0 0h10l5 2 4 5v7l-1 2 11-3 4-1h18l8 3 6 5 2 9-2 7-5 5-16 9-4 3-1 3 14-4h14l8 4 5 6 2 5v11l-5 10-5 4-14 4v3l14 3 11 6 10 9 7 10 6 14 4 18 1 11 1 24 8-4h14l6 2v-4l-4 1-2-4 1-4 3-1v2h2v2l3-2-3-2-16-4-2-17-4-17-4-11 1-4 25 5 27 6 4 3v37l-1 21-3 24-5 22-7 21-12 26-11 18-10 13-9 10-4 5h-2l-1 3-16 14-18 13-20 12-17 9-23 10-10-3-21-10-21-12-11-7-13-9-13-11-8-7-11-11-11-14-10-15-10-18-9-21-6-18-6-28-3-30v-46l9-3 30-7 11-2h6l4 14v29l-14 1-11 4-10 9-6 12-1 5v20l5 16 6 11 8 10 9 10 14 11 8 5 2 31 3 5 6 1 2-2 1-10-2-34-12-7-13-10-7-7-9-13-6-12-2-7v-17l3-7 4-6 8-5 10-1 11 4 7 5v-48l-3-14-5-21-1-6v-25l3-12 7-11 8-6 5-2h8l5 4 4 12h1l4-18 5-14 7-12 8-9 10-7zm155 198-3 2v3h-2v3h2v8h3l1 2 1 1v4h-2v-3l-5 1-2 2h-2l-5 12-7 11-9 10-7 7-10 7-12 7-5 38 1 7 2 2 5-1 6-7 3-26 2-4 11-7 13-11 9-10 9-14 5-12 2-6 1-9v-10l-1-4h-3z" fill="#ED9231"/>
<path transform="translate(475,324)" d="m0 0h8l12 3 5 3 2 3 6 1 20-6h7l6 3 2 4v9l-4 5-2 1h-20l-7 4-6 8-3 7-5-1-11-3h-11l-12 3-12 6 14-5 5-1h18l9 3 4 3 2 9 3 5 2 1h7l13-5h8l10 4 10 9 7 10 5 12 1 6-27-5-9-1 31 8 6 3 2 9v51l4-4 8-11 7-6 4-2 8 1 5 4 1 2v12l-4 11-7 10-5-1-13-9v2l10 9-4 4-12 8-11 8-15 15h5l-1 15-1 5-5-1-13-4-12-2h-18l-24 4-25 5-9 1h-11l-3-8-4-15-12-14-7-8-14-14-2-4 5-4 2-4v-3l-8 8-4-2-5-8-4-12v-17l6 2 8 7 7 11 3 6h2l1-12 8-4 5-5 6-9 4-11 2-10 1-14 21-4 17-5 10-2 18-1h-18l-40 8h-8l-6-20-7-20-3-17 9-3 4 1 4 6h2l1-11 7-8 7-10 4-6 17-5z" fill="#FACA6E"/>
<path transform="translate(564,350)" d="m0 0h10l44 7 28 6 31 8 6 4 3 4v73l-3 28-5 28-6 22-10 26-8 16-10 18-8 11-11 14-9 10-15 15-11 9-14 11-14 9-18 11-27 14-19 9-7 3-8 1-10-2-15-7-30-15-25-15-17-12-14-11-15-14-13-13-9-11-11-15-9-15-10-19-8-20-7-22-6-27-3-20-2-23v-67l4-6 4-3 26-7 38-8 16-3 5 1 1 20-1 2-25 5-29 7-13 4-2 3v57l2 23 5 27 6 23 7 19 13 27 9 14 8 11 11 13 19 19 14 11 15 11 20 12 30 15 16 7 5 2 25-11 36-19 19-13 9-7 10-8 13-12 12-13 9-12 12-18 12-23 8-21 6-23 4-19 2-17 2-26v-47l-3-4-27-7-27-6-36-6-8-7-4-3 1-4 4-5z" fill="#ED9333"/>
<path transform="translate(367,352)" d="m0 0 5 1 1 20-1 2-25 5-29 7-13 4-2 3v57l2 23 5 27 6 23 7 19 13 27 9 14 8 11 11 13 19 19 14 11 15 11 20 12 30 15 16 7 5 3v19h-10l-15-7-30-15-25-15-17-12-14-11-15-14-13-13-9-11-11-15-9-15-10-19-8-20-7-22-6-27-3-20-2-23v-67l4-6 4-3 26-7 38-8z" fill="#376855"/>
<path transform="translate(371,394)" d="m0 0h6l4 14v29l-14 1-11 4-10 9-6 12-1 5v20l5 16 6 11 8 10 9 10 14 11 8 5 2 31 3 5 7 3 11 12 14 14 17 13 13 8 23 12 17 7 1 4-13 6-10-3-21-10-21-12-11-7-13-9-13-11-8-7-11-11-11-14-10-15-10-18-9-21-6-18-6-28-3-30v-46l9-3 30-7z" fill="#8BA443"/>
<path transform="translate(787,355)" d="m0 0h25l13 2 10 4-2 11-2 7-14-5-6-1h-21l-13 5-8 8-4 7-3 15v11l4 13 6 8 10 7 12 3h13l10-2v-23l1-3-8 1h-13l-1-1v-16h41v55l-2 2-18 4-9 1h-20l-12-3-14-7-10-9-7-10-4-10-2-14 1-15 3-10 6-12 5-6h2l1-3 9-7 12-5z" fill="#EE9333"/>
<path transform="translate(1039,388)" d="m0 0h5l2 8-1 5-5 2-7 1 5 7v16l-4 8-8 7-11 4-5 1h-19l-1 1 1 7 6 2 29 3 9 3 7 6 2 4v10l-3 7-6 7-12 6-10 2h-24l-11-3-9-6-3-5v-10l4-6 9-6 1-2-4-1v-2h-2l-3-6 1-9 7-6h2v-2l-4-2-6-7-2-5v-14l3-7 7-8 9-5 9-2 32-1zm-38 16-8 3-5 5-1 10 3 7 5 4 2 1h12l5-2 4-4 2-6v-7l-3-6-4-3-7-2zm-10 68-5 5-2 3v6l6 5 3 1h19l11-4 3-4v-6l-3-3-10-2z" fill="#EE9638"/>
<path transform="translate(742,510)" d="m0 0h44l15 3 13 7 7 9 3 8v17l-3 10-6 9-8 7-12 5-14 2h-16v35l-1 1h-22zm23 17-1 40 1 3h18l9-3 5-4 4-7v-15l-4-7-5-4-8-3z" fill="#3B6A56"/>
<path transform="translate(1034,548)" d="m0 0h19l1 1 1 9 8-6 9-4h17l9 4 6 7 3 9 1 52-1 3h-19l-1-1-1-50-3-5-7-3-10 1-9 5-2 2v50l-1 1h-20z" fill="#3B6A56"/>
<path transform="translate(1147,548)" d="m0 0h21l10 4 9 8 4 8 2 9v9l-1 4-4 1-50-1 3 10 5 5 8 4 10 1 13-2 11-3 1 3v11l-14 4-6 1h-18l-12-3-10-6-7-8-4-11-1-12 2-11 4-8 9-10 12-6zm9 12-8 2-6 5-3 5-1 6h36l-1-7-4-7-5-3z" fill="#3D6C59"/>
<path transform="translate(930,390)" d="m0 0 11 1 8 4 6 7 3 10v53l-1 1h-18l-1-1-1-50-3-6-5-2h-10l-9 4-4 4-1 50-1 1h-18l-1-1v-73h19l1 9 10-7 8-3z" fill="#EE9639"/>
<path transform="translate(1083,390)" d="m0 0h10l13 4 8 6 6 9 3 12v11l-1 1h-54l2 8 4 7 9 4 5 1 15-1 10-3 5-1 1 1v13l-8 3-8 2-17 1-15-3-8-4-8-7-5-8-2-6v-21l5-12 8-9 11-6zm-3 14-8 5-4 7-1 5 1 1h30l6-1-1-8-3-5-7-4z" fill="#EE9536"/>
<path transform="translate(858,547)" d="m0 0 15 1 9 3 8 6 4 9 1 43 3 8 1 5-2 1h-16l-5-5-1-2-8 5-9 3h-14l-8-3-7-5-3-6-1-10 4-10 6-5 9-4 11-2 20-1-2-9-4-4-5-2h-18l-12 3-2-3v-11l15-4zm8 42-12 2-6 4-2 3v7l4 5 5 2 10-1 6-3 4-4v-14l-1-1z" fill="#3C6C59"/>
<path transform="translate(484,585)" d="m0 0h20l21 5 17 7 3 2-1 2-2-1-3 9-2 12-5 11-3 1-4-4-15-3-10-1-10-6-15-4-12-5-11-7-6-5-2-4 14-4z" fill="#FBCA6E"/>
<path transform="translate(413,593)" d="m0 0 9 2h10l12-1 4 5 9 6 12 7 16 5 7 2 8 5 13 2 12 2 5 5-5 4-14 8-8 4-5-1-9-3-9-1-7-2-8-4-2-2h-8l-7-3-13-9-13-11-8-8-1-5z" fill="#F1AC46"/>
<path transform="translate(998,526)" d="m0 0 3 1v21h19l1 1v14l-1 1h-20l1 39 1 5 4 1h9l7-1 1 4v9l-11 3h-16l-8-3-5-5-3-9v-43h-13v-15h14l-1-18 9-3z" fill="#3B6A57"/>
<path transform="translate(506,559)" d="m0 0 20 1 16 4 8 5 1 2-2 5-3 14-2 4-9-3-14-6-13-3h-28l-20 4-13 3h-5l-5-7-3-8v-3l15-2 25-5 22-4z" fill="#FBCA6E"/>
<path transform="translate(911,548)" d="m0 0h18l1 1 1 12 9-10 6-3h14l1 1v12l-1 6h-12l-8 2-6 5-2 4-1 44-1 1h-19l-1-4v-66z" fill="#3A6A56"/>
<path transform="translate(1205,548)" d="m0 0h19l1 1v12h2l2-4 8-7 5-2h14v16l-2 4h-17l-6 4-4 5-1 6v39l-1 1h-20z" fill="#3A6A57"/>
<path transform="translate(1175,390)" d="m0 0 9 2-1 18-4 1-8-1-8 2-6 4-2 3-1 46-1 1h-19l-1-5v-69h20l1 12 7-9 8-4z" fill="#EE9536"/>
<path transform="translate(851,392)" d="m0 0h20v73l-1 1h-19z" fill="#EE9638"/>
<path transform="translate(512,288)" d="m0 0 10 1 5 3 1 5-5 5-13 7-5 4-5 10-1 3-9-3-4-1h-17l-12 3-4-1 9-17 2-5 1 3v14l3-1 6-8 6-7 13-9 13-5z" fill="#FBCA6E"/>
<path transform="translate(395,359)" d="m0 0 19 2 3 12 5 17 7 21 1 7h-12l-10-3-2-1-2-12-6-21-3-18z" fill="#F2AD47"/>
<path transform="translate(406,419)" d="m0 0 10 2 14 1v14l-3 14-7 14-5 6-8 5h-3v-27z" fill="#F1AC46"/>
<path transform="translate(390,504)" d="m0 0 3 1 7 8 14 14 9 11 4 5 6 22v1l-10-1-8-3-3-4v-16h6l-1-3-19-10-13-10-7-7 1-2 10-5z" fill="#F2AD47"/>
<path transform="translate(440,455)" d="m0 0h7l5 2 6 7 1 5v7l-4 9-5 3-8 1-8-4-4-7-1-8 3-9 6-5z" fill="#30624E"/>
<path transform="translate(531,455)" d="m0 0h7l7 4 4 7v10l-3 7-6 5-7 1-7-3-5-6-1-3v-11l4-6 5-4z" fill="#30624E"/>
<path transform="translate(370,461)" d="m0 0h7l1 17 5 14 5 7 2 2-12 6-5-1-6-9-5-11-1-12 3-8z" fill="#F2AD47"/>
<path transform="translate(410,324)" d="m0 0 4 1 7 21 3 8-6 3h-15l-8-3 1-11 4-10 7-8z" fill="#F2AD47"/>
<path transform="translate(413,566)" d="m0 0 12 3 13 1-4 1 5 13 3 4 3 2-7 1h-19l-6-4z" fill="#F2AD47"/>
<path transform="translate(430,493)" d="m0 0h13l9 4 3 6-2 4-6 3-4 1h-10l-8-3-4-3v-6l6-5z" fill="#F2AD47"/>
<path transform="translate(851,358)" d="m0 0h18l2 2v18l-1 1h-20l-1-5v-10z" fill="#F09E46"/>
<path transform="translate(608,447)" d="m0 0h2v2h2v2l3-2-1-2 5 2 8 8 4 8v3h-3l-1-2-2 1-1 3h-2v3h2v8h5l1 3v5l-3-1v-3l-4 1-3 3-2-1-1 5-1-3 1-4v-13l-3-7-4-6 2-2v-3l-4 1-2-4 1-4z" fill="#FEFEFE"/>
<path transform="translate(468,293)" d="m0 0 1 2-3 8-2 1-9 19v3l-13 4h-5l2-10 7-8 12-13 5-4z" fill="#F2AD48"/>
<path transform="translate(467,496)" d="m0 0 14 5 12 1 10-2 8-3h3l-2 9-4 6-3 2v-4l-7-1h-14l-7 3-2 2-5-6-3-8z" fill="#31634E"/>
<path transform="translate(484,508)" d="m0 0h14l7 2 1 5-7 5-3 1h-12l-9-6 2-4z" fill="#ED902C"/>
<path transform="translate(545,599)" d="m0 0 4 1v7l-3 12-3 3h-5l-1-5 1-8 4-9z" fill="#F2AD47"/>
<path transform="translate(538,497)" d="m0 0 4 1h-2l7 8-2 4h-10l-3-2v-2l-4-1-1-3 4-4z" fill="#F2AD47"/>
<path transform="translate(449,331)" d="m0 0 2 1-7 12-5 6-4 2v-12l1-6z" fill="#F2AD47"/>
<path transform="translate(796,406)" d="m0 0h41v55h-1v-54h-39l1 14h19v1l-7 1h-13l-1-1z" fill="#FAD799"/>
<path transform="translate(378,545)" d="m0 0 5 2 6 4 1 15v14h-1l-1-13-6-8-4-9z" fill="#EF9D42"/>
<path transform="translate(415,333)" d="m0 0 2 1 6 17 1 3-4 2h-6v-16z" fill="#FBCA6E"/>
<path transform="translate(469,496)" d="m0 0 16 2h14l9-2h5l-4 3-9 3-12 1-14-3-5-3z" fill="#FDFBF8"/>
<path transform="translate(551,570)" d="m0 0 3 1-1 13-2 7-6 1 4-19z" fill="#F2AD47"/>
<path transform="translate(552,543)" d="m0 0h5l-1 14-1 9-7-2 2-1 1-13z" fill="#F2AD47"/>
<path transform="translate(532,460)" d="m0 0 7 1 1 6-2 3-4 1-4-2-1-6z" fill="#FDFAF4"/>
<path transform="translate(442,460)" d="m0 0h5l3 4-2 5-1 1h-6l-2-3 1-6z" fill="#FEFEFE"/>
<path transform="translate(478,409)" d="m0 0h18l2 2h-10l-17 2v-3z" fill="#EF9A35"/>
<path transform="translate(764,363)" d="m0 0 2 1-16 16v-3l4-5h2l1-3z" fill="#F4BA74"/>
<path transform="translate(456,273)" d="m0 0 2 1-14 14v-3l7-8z" fill="#F5BE7A"/>
<path transform="translate(462,367)" d="m0 0 2 1v2l-13 5-2-1 8-5z" fill="#EF9A35"/>
<path transform="translate(1064,396)" d="m0 0 2 1-12 12v-3l7-8z" fill="#F4BC76"/>
<path transform="translate(523,417)" d="m0 0 13 1 5 1v3l-18-4z" fill="#EF9B37"/>
</svg>
