<?xml version="1.0" encoding="UTF-8"?>
<svg version="1.1" viewBox="0 0 1536 1024" width="1536" height="1024" xmlns="http://www.w3.org/2000/svg">
<path transform="translate(501,219)" d="m0 0h340l6 3 66 66 3 2v2l4 2 3 3 2 5v137l16 1 22 5 15 5 16 7 13 8 14 10 15 14 10 11 10 14 9 16 6 13 5 16 3 16 1 8v33l-3 20-4 14-6 16-10 19-8 11-11 13-12 12-14 11-10 7-23 11-21 7-18 4-18 2h-21l-21-2-22-5-21-8-19-10-14-10-5-4-297-1-7-3-5-5-2-8v-474l3-8 5-4zm5 18v468h274l-7-11-7-10-8-16-6-15-5-18-2-13-1-26 2-21 5-22 8-20 9-16 10-14 12-14 12-11 17-12 10-6 24-10 20-6 24-4 10-1 1-3v-120l-66-1-6-3-3-5-1-4-1-66zm342 12v49l1 1h50l-6-7-10-9-34-34zm62 208-19 2-18 5-16 7-9 5-12 8-13 11-8 8-13 18-8 16-6 16-4 18-1 9v20l2 17 5 19 5 12 9 17 9 12 9 10 5 5 14 12 15 9 18 8 15 4 9 2 9 1h25l23-4 13-4 17-9 9-5 10-8 10-9 7-7 8-10 8-13 8-16 5-17 3-15 1-12v-10l-3-22-5-19-7-16-11-18-12-14-10-10-13-10-16-9-11-5-16-5-15-3-12-1zm-130 74m-3 6 1 2zm-1 2 1 2zm-1 2-7 16-5 20-2 22v10l2 18 4 17 6 16 8 16 11 16 11 12 11 10 16 11 15 8 17 6 5 2 22 4h37l16-3v-1l-28 1-19-2-21-5-18-7-14-8-16-11-12-11-10-10-11-15-6-10-9-20-4-13-4-23v-33l3-18 3-12zm176 197m-5 1m-4 1 4 1z" fill="#3B434D"/>
<path transform="translate(917,495)" d="m0 0 9 2 3 4v16l8 1 15 5 12 8 7 7 2 4v7l-5 6-2 1h-10l-8-7-7-6-12-4v40l18 4 17 7 10 9 5 9 1 5v18l-3 10-6 8-9 8-14 6-12 3h-7l1 14-4 6-4 2-8-1-4-5v-16l-16-3-16-8-10-9-6-8-1-2v-7l4-5 9-3 6 2 8 10 11 7 11 4-1-45-19-5-16-8-8-9-4-10v-18l4-10 9-10 12-7 17-5h6v-17l4-4zm-9 43-8 2-8 4-5 6-1 3v8l4 6 8 5 8 3h4v-37zm21 65v42l9-2 10-5 5-5 2-4v-10l-4-7-8-5-12-4z" fill="#39414B"/>
<path transform="translate(600,271)" d="m0 0h18l6 3 4 5 1 9-1 23h31l6 3 4 7v19l-3 6-6 4h-32v33l-3 5-4 3-5 1h-16l-6-3-4-6v-33h-33l-5-4-2-4v-23l3-5 7-3h30v-31l3-6z" fill="#38404B"/>
<path transform="translate(556,434)" d="m0 0h238l5 5v8l-6 5h-236l-5-4-1-8 2-4z" fill="#3E4650"/>
<path transform="translate(557,481)" d="m0 0h180l5 4 1 8-3 5-2 1-11 1h-168l-6-3-2-4v-6l4-5z" fill="#454C56"/>
<path transform="translate(556,529)" d="m0 0h152l5 4 1 7-4 6-2 1h-151l-4-2-2-4v-6l2-4z" fill="#373F4A"/>
<path transform="translate(558,576)" d="m0 0h115l6 5v8l-5 5-5 1h-110l-6-3-2-4 1-8z" fill="#414852"/>
</svg>
