<?xml version="1.0" encoding="UTF-8"?>
<svg version="1.1" viewBox="0 0 1536 1024" width="1536" height="1024" xmlns="http://www.w3.org/2000/svg">
<path transform="translate(748,233)" d="m0 0h46l31 4 23 5 19 6 14 5 20 9 24 14 16 12 13 11 20 20 11 14 10 14 9 15 10 19 9 23 8 28 4 23 2 23v30l-2 21-5 29-8 26-6 16-13 26-7 11-14 19-10 11-7 8-11 10-14 11-15 10-15 9-17 8-20 8-25 7-25 5-17 2-15 1h-37l-29-3-25-5-25-7-20-8-16-8-14-8-12-8-13-10-14-12-12-12-9-11-10-13-9-14-10-17-11-25-9-28-5-23-3-25v-40l2-21 6-29 7-23 10-23 8-16 10-16 8-11 13-16 18-18 11-9 14-10 10-7 28-14 20-8 24-7 18-4zm45 22-24 3-21 5-17 6-15 7-20 11-17 13-11 9-16 16-11 14-10 14-11 19-10 21-7 20-5 19-4 21-2 28v12l1 17 3 21 5 22 8 24 8 18 7 14 12 19 10 13 12 14 11 11 8 7 14 11 15 10 21 11 15 6 15 5 24 5 23 2h10l23-2 24-5 23-8 17-8 14-8 17-12 11-9 13-12 13-14 13-18 8-13 12-23 9-24 6-21 4-24 1-10v-43l-3-22-5-22-9-27-13-27-10-16-10-14-11-13-9-10-13-12-14-11-14-9-17-10-21-9-15-5-17-4-13-2-12-1zm-75 2-24 6-28 10-29 14-16 10-1 2h35l10-9 12-9v-2l3-1-2-3h4 4l17-9 19-8zm-113 53-12 11-8 8-9 11-10 14-9 14v2h44l6-10 8-14 12-17 12-14 4-5zm-54 71-5 10-7 18-7 26-2 11v5h46l1-1 4-23 7-24 8-22zm-23 81-1 8v36l1 14 1 2h46v-60zm3 71 1 9 7 25 8 22 5 11h46l-5-13-7-19-6-24-2-10-1-1zm71 77-44 1 8 14 11 15 9 11 9 10 14 14 2 1h42l-6-7-9-9-9-11-11-15-12-20zm24 77 5 5 9 6 16 8 14 6 24 8 24 5 14 2h5l-3-2-18-7-16-8-16-9-16-12-2-2z" fill="#39424F"/>
<path transform="translate(800,281)" d="m0 0h19l24 3 22 6 20 8 18 10 16 11 11 9 20 20 13 17 12 19 8 16 8 20 7 26 3 22v43l-3 24-7 26-8 20-8 16-11 18-18 22-8 8h-2l-1 3-11 9-13 10-21 12-20 8-21 6-18 3-24 1-23-2-15-3-16-5-13-5-19-10-15-10-14-11-20-20-11-14-10-15-9-16-10-24-8-28-3-18-1-14v-31l2-18 4-21 9-27 4-9 8-16 11-18 11-14 11-12 10-10 14-11 19-12 17-8 12-5 18-5 18-3zm-9 12-18 3-18 5-17 7-15 8-16 11-13 11-14 14-8 10-9 13-12 21-10 25-6 22-3 18-1 21v18l2 21 4 19 5 16 7 18 8 16 11 18 11 14 14 15 10 9 18 13 18 10 19 8 23 6 13 2 21 1 24-2 20-5 19-7 16-8 14-9 13-10 10-9 10-10 11-14 7-10 10-17 8-18 7-21 5-23 2-22v-23l-3-26-6-24-7-19-8-17-9-15-12-16-9-11-13-13-13-10-13-9-12-7-18-8-19-6-15-3-9-1z" fill="#404855"/>
<path transform="translate(736,416)" d="m0 0h17l13 3 12 6 12 12 7 14 5 19 1 8v26l-2 14-4 14-6 12-8 10-14 9-14 4h-21l-13-4-10-6-9-8-8-13-5-14-3-18v-25l3-19 6-16 8-11 5-5 10-7 12-4zm1 23-10 5-5 5-5 8-4 13-1 6v31l3 14 5 10 7 8 10 5 9 1 8-2 8-4 5-5 5-8 4-12 2-18-1-21-4-16-5-9-4-5-12-6z" fill="#363F4D"/>
<path transform="translate(918,426)" d="m0 0 4 1-5 9-13 20-12 19-7 11-16 25-24 38-5 7h-22l1-4 10-16 28-44 11-17 24-38 7-10z" fill="#3C4451"/>
<path transform="translate(896,498)" d="m0 0h15l9 4 7 6 5 10 1 4v11l-3 9-9 10-9 4-4 1h-10l-11-4-7-6-4-6-2-6v-15l4-10 7-7 8-4zm7 18m-10 5-1 1v10l3 5 4 2h8l4-4-1-4v3l-4-1-5 2-6-3-1-9zm21 5 1 4zm-1 4 1 3z" fill="#38414F"/>
<path transform="translate(830,426)" d="m0 0h13l9 4 8 7 4 7 1 3v17l-5 10-9 8-9 3h-13l-9-4-8-7-4-7-1-4v-15l3-8 8-9 5-3zm1 18-5 5-2 4 1 8 5 6 2 1h7l7-5 2-4-1-9-6-6z" fill="#39414F"/>
<path transform="translate(899,515)" d="m0 0h9l6 5 1 6-3 11h-2v-3l-7 1-2 1-7-4-1-9 1-5z" fill="#FEFEFE"/>
<path transform="translate(845,453)" d="m0 0 1 4z" fill="#FEFEFE"/>
</svg>
