<?xml version="1.0" encoding="UTF-8"?>
<svg version="1.1" viewBox="0 0 1536 1024" width="1536" height="1024" xmlns="http://www.w3.org/2000/svg">
<path transform="translate(554,315)" d="m0 0h50l23 3 25 5 33 11 20 9 22 12 17 12 13 11 8 7 4 4 4-2 10-10 14-11 13-9 15-9 16-8 19-8 18-6 21-5 24-4 24-2h38l14 1 5 2 5 5 11 36v4l18 3 17 4 4 7 14 43 22 67 13 40 14 45 13 40 6 19v8l-4 9-5 4-4 2h-17l-56-2h-51l-57 2-41 3-35 4-31 4-25 4-6 9-8 7-12 5-9 2h-19l-16-4-10-6-7-7-4-6-47-7-34-4-50-4-60-2h-33l-44 1-24 1h-22l-8-5-4-8v-11l9-27 6-20 7-21 10-32 7-21 14-43 16-49 15-45 4-3 30-6h3l2-10 9-29 3-5 6-3zm6 19-13 1-3 8-12 40-11 36-12 40-9 29-8 26-9 30-1 3 15-1 16-1h35l34 3 23 4 26 6 20 6 26 10 25 12 17 10 15 10 13 11 10 8 5 5v-220l-7-8-12-11-13-10-21-14-23-12-15-6-18-6-21-5-19-3-12-1zm378 0-24 3-28 6-23 8-18 8-21 12-14 10-9 7-12 11-10 10v221l5-5 12-11 17-13 14-9 18-10 20-9 24-9 19-6 22-5 15-3 30-4 19-1h40l22 1-1-7-14-45-10-33-22-72-16-53-1-1-13-1zm88 48 7 22 7 23 13 43 10 32 15 50v8l-4 5-2 1-14-1-24-3-14-1h-30l-29 2-27 4-33 8-28 10-23 10-22 12-20 13-16 12-6 5 4 2 4-1 4-4 15-10 23-12 17-7 26-8 30-7 27-4 17-1h49l21 2 26 4 23 5 26 8 13 5 3-1-6-16-28-91-10-31-14-45-13-38-1-2-13-3zm-517 0-12 3-4 10-19 59-15 47-10 33-8 25-9 28-6 19v3l9-3 25-8 30-7 27-4 23-2 28-1 23 1 33 4 28 6 27 8 20 8 16 7 19 11 13 10 8-2-5-4-11-9-15-10-13-8-14-8-19-9-26-10-23-7-27-6-31-4-11-1h-37l-26 2-23 3h-8l-5-5v-10l13-41 5-17 11-36 10-33 8-25 5-17zm32 220-25 2-24 4-30 7-24 8-8 3v1l20-1 43-2h93l36 2 44 4 31 4 11 2h5l-4-3-20-9-33-11-21-5-24-4-22-2zm410 0-30 3-17 3-25 6-27 9-27 12 4 1 27-4 36-4 45-3 17-1h92l43 2 18 1-2-2-19-7-29-8-27-5-17-2-15-1z" fill="#343E4A"/>
</svg>
